# xmcd CD database file
#
# Track frame offsets:
#	150
#	11325
#	24545
#	37980
#	49885
#	60907
#	79930
#	88912
#	103930
#	116545
#	129115
#	141055
#	159142
#	173035
#
# Disc length: 2489 seconds
#
# Revision: 0
# Processed by: cddbd v1.5.1PL0 Copyright (c) Steve Scherf et al.
# Submitted via: CDex 1.51
#
DISCID=a409b70e
DTITLE=Holiday Flyer - You Make Us Go
DYEAR=1900
DGENRE=General Pop
TTITLE0=How When Or Where
TTITLE1=Clover Valley Road
TTITLE2=Movies
TTITLE3=Nothing's Wrong
TTITLE4=Still Here
TTITLE5=Guts
TTITLE6=Nobody Follow Me
TTITLE7=Joke's On Me
TTITLE8=Be Alright
TTITLE9=Anyway
TTITLE10=When Will I Ever Learn
TTITLE11=Surprised
TTITLE12=Am I Growing Up?
TTITLE13=Never Know What To Say
EXTD=
EXTT0=
EXTT1=
EXTT2=
EXTT3=
EXTT4=
EXTT5=
EXTT6=
EXTT7=
EXTT8=
EXTT9=
EXTT10=
EXTT11=
EXTT12=
EXTT13=
PLAYORDER=
